<?xml version="1.0" encoding="UTF-8" standalone="no"?>
<!-- Created with Inkscape (http://www.inkscape.org/) -->

<svg
   version="1.1"
   id="svg1"
   width="252.87216"
   height="385.2822"
   viewBox="0 0 252.87216 385.28218"
   xmlns="http://www.w3.org/2000/svg"
   xmlns:svg="http://www.w3.org/2000/svg">
  <defs
     id="defs1">
    <clipPath
       clipPathUnits="userSpaceOnUse"
       id="clipPath3">
      <path
         d="M 0,822.047 H 595.276 V 0 H 0 Z"
         transform="translate(-276.17821,-468.57541)"
         id="path3" />
    </clipPath>
    <clipPath
       clipPathUnits="userSpaceOnUse"
       id="clipPath5">
      <path
         d="M 0,822.047 H 595.276 V 0 H 0 Z"
         transform="translate(0,2.5000001e-5)"
         id="path5" />
    </clipPath>
    <clipPath
       clipPathUnits="userSpaceOnUse"
       id="clipPath7">
      <path
         d="M 0,822.047 H 595.276 V 0 H 0 Z"
         transform="translate(-275.308,-414.13401)"
         id="path7" />
    </clipPath>
    <clipPath
       clipPathUnits="userSpaceOnUse"
       id="clipPath9">
      <path
         d="M 0,822.047 H 595.276 V 0 H 0 Z"
         transform="translate(-312.19821,-406.63211)"
         id="path9" />
    </clipPath>
    <clipPath
       clipPathUnits="userSpaceOnUse"
       id="clipPath11">
      <path
         d="M 0,822.047 H 595.276 V 0 H 0 Z"
         transform="translate(0,2.5000001e-5)"
         id="path11" />
    </clipPath>
    <clipPath
       clipPathUnits="userSpaceOnUse"
       id="clipPath13">
      <path
         d="M 0,822.047 H 595.276 V 0 H 0 Z"
         transform="translate(-355.04001,-413.57541)"
         id="path13" />
    </clipPath>
    <clipPath
       clipPathUnits="userSpaceOnUse"
       id="clipPath15">
      <path
         d="M 0,822.047 H 595.276 V 0 H 0 Z"
         transform="translate(-391.86811,-448.66531)"
         id="path15" />
    </clipPath>
    <clipPath
       clipPathUnits="userSpaceOnUse"
       id="clipPath17">
      <path
         d="M 0,822.047 H 595.276 V 0 H 0 Z"
         transform="translate(-401.83681,-514.40532)"
         id="path17" />
    </clipPath>
    <clipPath
       clipPathUnits="userSpaceOnUse"
       id="clipPath19">
      <path
         d="M 0,822.047 H 595.276 V 0 H 0 Z"
         transform="translate(0,2.5000001e-5)"
         id="path19" />
    </clipPath>
    <clipPath
       clipPathUnits="userSpaceOnUse"
       id="clipPath21">
      <path
         d="M 0,822.047 H 595.276 V 0 H 0 Z"
         transform="translate(-261.42501,-667.86361)"
         id="path21" />
    </clipPath>
    <clipPath
       clipPathUnits="userSpaceOnUse"
       id="clipPath23">
      <path
         d="M 0,822.047 H 595.276 V 0 H 0 Z"
         transform="translate(-266.29891,-651.20772)"
         id="path23" />
    </clipPath>
  </defs>
  <g
     id="layer-MC0"
     transform="translate(-314.33866,-205.57787)">
    <path
       id="path1"
       d="M 0,0 H 33.044 V -7.687 H 9.424 v -8.432 h 16.863 v -7.564 H 9.424 v -8.927 h 23.62 v -7.688 H 0 Z"
       style="fill:#231f20;fill-opacity:1;fill-rule:nonzero;stroke:none"
       transform="matrix(1.3333333,0,0,-1.3333333,318.55467,426.8228)" />
    <path
       id="path2"
       d="m 0,0 v 15.499 c 0,4.278 3.038,6.944 7.874,6.944 h 15.561 c 6.509,0 8.369,-3.472 8.369,-8.183 v -2.729 h -8.866 v 3.225 H 8.741 V 0.559 H 22.938 V 4.65 h 8.866 v -4.712 c 0,-3.906 -2.604,-6.881 -8.307,-6.881 H 7.625 C 3.906,-6.943 0,-4.836 0,0"
       style="fill:#231f20;fill-opacity:1;fill-rule:nonzero;stroke:none"
       transform="matrix(1.3333333,0,0,-1.3333333,368.2376,471.29547)"
       clip-path="url(#clipPath3)" />
    <path
       id="path4"
       d="m 335.759,483.517 h -14.507 v -14.569 h 14.507 z m -23.373,-14.631 v 14.445 c 0,5.207 3.348,7.688 8.308,7.688 h 15.437 c 6.075,0 8.493,-3.101 8.493,-8.184 V 469.01 c 0,-4.278 -2.294,-7.378 -8.741,-7.378 h -15.499 c -3.906,0 -7.998,2.17 -7.998,7.254"
       style="fill:#231f20;fill-opacity:1;fill-rule:nonzero;stroke:none"
       transform="matrix(1.3333333,0,0,-1.3333333,0,1096.0627)"
       clip-path="url(#clipPath5)" />
    <path
       id="path6"
       d="m 0,0 c 0,-4.464 -2.79,-7.502 -7.812,-7.502 h -21.45 c -3.968,0 -7.564,2.107 -7.564,7.13 v 6.819 h 9.3 V 0.248 h 18.289 v 6.385 l -23.125,5.828 c -3.41,0.868 -4.464,2.727 -4.464,6.323 v 7.874 c 0,4.34 2.604,6.138 6.82,6.138 h 23.001 c 5.703,0 7.005,-3.1 7.005,-8.122 v -5.146 h -9.237 v 5.58 H -27.526 V 19.404 L -4.278,13.453 C -0.868,12.585 0,10.911 0,6.757 Z"
       style="fill:#231f20;fill-opacity:1;fill-rule:nonzero;stroke:none"
       transform="matrix(1.3333333,0,0,-1.3333333,367.07733,543.884)"
       clip-path="url(#clipPath7)" />
    <path
       id="path8"
       d="M 0,0 H -8.928 V 21.699 H -22.133 V 0 h -8.928 v 42.033 h 8.928 V 26.534 c 3.72,1.985 8.618,3.101 13.081,3.101 6.944,0 9.052,-2.79 9.052,-7.565 z"
       style="fill:#231f20;fill-opacity:1;fill-rule:nonzero;stroke:none"
       transform="matrix(1.3333333,0,0,-1.3333333,416.26427,553.88653)"
       clip-path="url(#clipPath9)" />
    <path
       id="path10"
       d="m 340.966,428.331 h -14.879 v -14.197 h 14.879 z m -23.744,-14.632 v 15.127 c 0,4.588 2.48,7.441 9.546,7.441 5.271,0 11.098,-1.364 14.198,-2.977 l 0.248,2.729 h 8.679 v -29.387 h -8.679 l -0.248,2.604 c 0,0 -6.881,-2.852 -14.198,-2.852 -6.819,0 -9.546,2.914 -9.546,7.315"
       style="fill:#231f20;fill-opacity:1;fill-rule:nonzero;stroke:none"
       transform="matrix(1.3333333,0,0,-1.3333333,0,1096.0627)"
       clip-path="url(#clipPath11)" />
    <path
       id="path12"
       d="m 0,0 v 15.499 c 0,4.278 3.038,6.944 7.874,6.944 h 15.562 c 6.508,0 8.369,-3.472 8.369,-8.183 v -2.729 h -8.866 v 3.225 H 8.742 V 0.559 H 22.939 V 4.65 h 8.866 v -4.712 c 0,-3.906 -2.604,-6.881 -8.308,-6.881 H 7.626 C 3.906,-6.943 0,-4.836 0,0"
       style="fill:#231f20;fill-opacity:1;fill-rule:nonzero;stroke:none"
       transform="matrix(1.3333333,0,0,-1.3333333,473.38667,544.6288)"
       clip-path="url(#clipPath13)" />
    <path
       id="path14"
       d="m 0,0 h 8.989 v -22.938 h 1.427 l 10.291,10.292 H 32.301 L 18.165,-25.977 v -0.619 L 33.54,-42.033 H 21.823 L 10.416,-30.439 H 8.989 V -42.033 H 0 Z"
       style="fill:#231f20;fill-opacity:1;fill-rule:nonzero;stroke:none"
       transform="matrix(1.3333333,0,0,-1.3333333,522.4908,497.84227)"
       clip-path="url(#clipPath15)" />
    <path
       id="path16"
       d="M 0,0 H 16.971 L -72.928,89.899 -162.826,0 h 16.97 l 72.928,72.928 z"
       style="fill:#231f20;fill-opacity:1;fill-rule:nonzero;stroke:none"
       transform="matrix(1.3333333,0,0,-1.3333333,535.7824,410.18893)"
       clip-path="url(#clipPath17)" />
    <path
       id="path18"
       d="M 425.036,378.902 H 235.754 v 12 h 189.282 z"
       style="fill:#231f20;fill-opacity:1;fill-rule:nonzero;stroke:none"
       transform="matrix(1.3333333,0,0,-1.3333333,0,1096.0627)"
       clip-path="url(#clipPath19)" />
    <path
       id="path20"
       d="M 0,0 C 0,0 14.26,-8.604 11.349,-20.894 9.44,-28.955 -4.773,-31.501 -4.561,-43.592 -4.427,-51.23 10.182,-58.787 8.591,-69.047 7,-79.308 -13.47,-81.554 -13.47,-95.987 c 0,-7.425 1.731,-9.737 9.334,-17.289 6.276,-6.234 7,-5.409 7,-5.409 l 10.182,10.176 c 0,0 -12.43,10.814 -7.497,16.706 10.306,12.309 15.794,13.104 16.431,25.514 0.636,12.409 -12.557,15.053 -12.328,23.758 0.212,8.06 4.242,4.879 8.909,19.515 C 24.464,-4.501 0,0 0,0"
       style="fill:#231f20;fill-opacity:1;fill-rule:nonzero;stroke:none"
       transform="matrix(1.3333333,0,0,-1.3333333,348.56667,205.57787)"
       clip-path="url(#clipPath21)" />
    <path
       id="path22"
       d="m 0,0 c 0,-2.05 -1.662,-3.712 -3.712,-3.712 -2.05,0 -3.712,1.662 -3.712,3.712 0,2.05 1.662,3.712 3.712,3.712 C -1.662,3.712 0,2.05 0,0"
       style="fill:#231f20;fill-opacity:1;fill-rule:nonzero;stroke:none"
       transform="matrix(1.3333333,0,0,-1.3333333,355.0652,227.78573)"
       clip-path="url(#clipPath23)" />
  </g>
</svg>
