<svg xmlns="http://www.w3.org/2000/svg" width="200" height="52" fill="none" viewBox="0 0 200 52">
  <!-- Eco Shack Footer Logo with Icon -->
  <g clip-path="url(#a)">
    <!-- Decorative icon/symbol -->
    <path fill="#fff" d="M5.763 45.319a1.793 1.793 0 1 1 .001 3.586 1.793 1.793 0 0 1 0-3.586zM38.382 3.095a2.14 2.14 0 1 1 .001 4.28 2.14 2.14 0 0 1 0-4.28z"/>
    <path fill="#F8F9FA" d="M42.111 23.394c.78 7.001-3.305 13.91-10.184 16.62-6.858 2.698-14.449.391-18.736-5.162l-.023-.105c9.146-2.05 20.9-6.685 28.922-11.388l.021.035zm-.515-2.761.058.113c-8.002 4.174-21.297 9.404-29.989 11.8l-.047-.17c-4.38-8.473-.497-18.958 8.455-22.481 9.254-3.64 19.208 1.912 21.523 10.738z"/>
    <path fill="#FFF68E" d="M42.09 23.36C27.256 32.057 3.367 38.726 1.71 34.513c-.658-1.67 2.563-4.649 8.082-7.897l.106-.01c.089.858.247 1.718.479 2.572l-.13.034c-8.21 4.293-7.685 5.847 1.42 3.334 4.04-1.115 9.429-2.943 15.26-5.237 19.16-7.54 27.783-13.887 13.554-9.989l-.165.087a15.964 15.964 0 0 0-1.392-2.201l.124-.095c13.72-3.023 15.27 1.086 3.043 8.247z"/>
    <path fill="#fff" d="M43.771 36.37a.882.882 0 1 1-.085 1.763.882.882 0 0 1 .085-1.763zM6.416 7a.883.883 0 1 0 0-1.765.883.883 0 0 0 0 1.766z"/>
  </g>
  
  <!-- "Eco Shack" Text for Footer -->
  <text x="55" y="20" font-family="Arial, sans-serif" font-size="16" font-weight="600" fill="#F8F9FA">Eco</text>
  <text x="55" y="40" font-family="Arial, sans-serif" font-size="16" font-weight="600" fill="#F8F9FA">Shack</text>
  
  <defs>
    <clipPath id="a">
      <path fill="#fff" d="M0 2h50v48H0z"/>
    </clipPath>
  </defs>
</svg>